<?xml version="1.0" encoding="UTF-8"?>
<svg xmlns="http://www.w3.org/2000/svg" xmlns:xlink="http://www.w3.org/1999/xlink" viewBox="0 0 30 30" width="30px" height="30px">
<g id="surface302261066">
<path style="fill-rule:nonzero;fill:rgb(0%,0%,0%);fill-opacity:1;stroke-width:1;stroke-linecap:butt;stroke-linejoin:round;stroke:rgb(80.000001%,80.000001%,80.000001%);stroke-opacity:1;stroke-miterlimit:10;" d="M 90.055582 15.928529 C 91.137071 17.032549 91.745408 18.519596 91.722877 20.074237 L 91.722877 22.935676 L 123.266304 22.935676 C 124.798413 22.913145 126.285461 23.498952 127.366949 24.580441 C 128.470969 25.661929 129.079307 27.126446 129.079307 28.658555 L 137.596032 28.658555 C 139.668886 28.636024 141.584022 29.717513 142.64298 31.519994 C 143.679407 33.299945 143.679407 35.507985 142.64298 37.287935 C 141.584022 39.067886 139.668886 40.171906 137.596032 40.126844 L 34.403965 40.126844 C 32.331111 40.171906 30.415975 39.067886 29.357017 37.287935 C 28.32059 35.507985 28.32059 33.299945 29.357017 31.519994 C 30.415975 29.717513 32.331111 28.636024 34.403965 28.658555 L 42.92069 28.658555 C 42.92069 27.126446 43.529028 25.661929 44.633048 24.580441 C 45.714536 23.498952 47.201584 22.913145 48.733693 22.935676 L 80.27712 22.935676 L 80.27712 20.074237 C 80.232058 16.897363 82.755532 14.306296 85.909874 14.261234 C 87.464515 14.238703 88.951562 14.824509 90.055582 15.928529 Z M 137.596032 51.595132 L 127.321887 138.947893 C 126.645957 144.715834 121.756726 149.064321 115.943723 149.064321 L 56.056274 149.064321 C 50.243271 149.064321 45.35404 144.715834 44.67811 138.947893 L 34.403965 51.595132 Z M 137.596032 51.595132 " transform="matrix(0.173372,0,0,0.173372,0.09,0.09)"/>
<path style=" stroke:none;fill-rule:nonzero;fill:rgb(96.078432%,9.411765%,0%);fill-opacity:1;" d="M 14.984375 2.5625 C 14.4375 2.570312 14 3.019531 14.007812 3.570312 L 14.007812 4.066406 L 8.539062 4.066406 C 8.273438 4.0625 8.015625 4.164062 7.828125 4.351562 C 7.636719 4.539062 7.53125 4.792969 7.53125 5.058594 L 6.054688 5.058594 C 5.695312 5.054688 5.363281 5.242188 5.179688 5.554688 C 5 5.863281 5 6.246094 5.179688 6.554688 C 5.363281 6.863281 5.695312 7.054688 6.054688 7.046875 L 23.945312 7.046875 C 24.304688 7.054688 24.636719 6.863281 24.820312 6.554688 C 25 6.246094 25 5.863281 24.820312 5.554688 C 24.636719 5.242188 24.304688 5.054688 23.945312 5.058594 L 22.46875 5.058594 C 22.46875 4.792969 22.363281 4.539062 22.171875 4.351562 C 21.984375 4.164062 21.726562 4.0625 21.460938 4.066406 L 15.992188 4.066406 L 15.992188 3.570312 C 15.996094 3.300781 15.890625 3.042969 15.703125 2.851562 C 15.511719 2.660156 15.253906 2.558594 14.984375 2.5625 Z M 6.054688 9.035156 L 7.835938 24.179688 C 7.953125 25.179688 8.800781 25.933594 9.808594 25.933594 L 20.191406 25.933594 C 21.199219 25.933594 22.046875 25.179688 22.164062 24.179688 L 23.945312 9.035156 Z M 6.054688 9.035156 "/>
</g>
</svg>
